<svg width="64" height="64" viewBox="0 0 64 64" fill="none" xmlns="http://www.w3.org/2000/svg">
<g clip-path="url(#clip0)">
<path d="M59.6923 21.5306C64.6359 14.5966 60.9974 4.3187 60.828 3.85201L59.4294 0L57.4288 3.5766C55.3192 7.3481 52.4213 9.29361 50.2966 10.2726C45.3297 6.68164 39.3801 4.742 33.1314 4.742H30.8672C24.6186 4.742 18.6688 6.68151 13.702 10.2725C11.5109 9.26498 8.65923 7.3121 6.56996 3.5766L4.56944 0L3.1705 3.85201C3.00111 4.3187 -0.637376 14.5964 4.30628 21.5306C2.46166 25.4152 1.48828 29.6933 1.48828 34.121V64H62.5103V34.121C62.5103 29.6932 61.537 25.4151 59.6923 21.5306ZM58.2228 8.92681C58.6378 11.4796 58.7909 14.8881 57.5376 17.7526C56.483 16.1871 55.2701 14.7116 53.9055 13.347C53.745 13.1865 53.5826 13.0286 53.4192 12.8723C54.9513 11.9857 56.6452 10.7218 58.2228 8.92681ZM5.77523 8.92969C7.34056 10.713 9.02641 11.9776 10.5782 12.8736C10.4152 13.0295 10.2532 13.187 10.0932 13.347C8.72862 14.7116 7.51571 16.1871 6.46107 17.7526C5.20803 14.889 5.36067 11.4818 5.77523 8.92969ZM58.7598 60.2495H5.23878V34.121C5.23878 19.9894 16.7357 8.49263 30.8672 8.49263H33.1314C47.2629 8.49263 58.7598 19.9894 58.7598 34.121V60.2495Z" fill="black"/>
<path d="M39.75 30.8711H24.2479C16.6652 30.8711 10.4961 37.0402 10.4961 44.6229V56.4995H53.5018V44.6229C53.5018 37.04 47.3327 30.8711 39.75 30.8711ZM44.7046 35.9406L42.2359 38.3845L40.5683 34.6578C42.0639 34.7796 43.4666 35.2313 44.7046 35.9406ZM23.4294 34.6578L21.7618 38.3845L19.2931 35.9406C20.5313 35.2313 21.934 34.7796 23.4294 34.6578ZM26.3703 52.749C27.2659 50.517 29.4505 48.936 31.9988 48.936C34.5472 48.936 36.7318 50.517 37.6273 52.749H26.3703ZM49.7513 52.749H41.5495C40.5292 48.4191 36.6359 45.1855 31.999 45.1855C27.362 45.1855 23.4687 48.4191 22.4484 52.749H14.2466V44.6229C14.2466 42.2669 15.0675 40.1002 16.4355 38.3891L22.9728 44.8606L27.5545 34.6216H36.4434L41.0251 44.8606L47.5624 38.3891C48.9305 40.1001 49.7513 42.2669 49.7513 44.6229V52.749Z" fill="black"/>
<path d="M23.6239 27.2439C27.2085 27.2439 30.1248 24.3277 30.1248 20.7431V19.9663L24.4006 14.2422H23.6239C20.0393 14.2422 17.123 17.1585 17.123 20.7431C17.123 24.3277 20.0393 27.2439 23.6239 27.2439ZM22.9346 18.0801L26.2868 21.4323C25.98 22.6163 24.9025 23.4933 23.6238 23.4933C22.1072 23.4933 20.8734 22.2595 20.8734 20.7429C20.8735 19.4645 21.7505 18.3867 22.9346 18.0801Z" fill="black"/>
<path d="M40.3759 27.2439C43.9605 27.2439 46.8767 24.3277 46.8767 20.7431C46.8767 17.1585 43.9605 14.2422 40.3759 14.2422H39.5991L33.875 19.9663V20.7431C33.875 24.3275 36.7913 27.2439 40.3759 27.2439ZM41.0651 18.0801C42.2491 18.3867 43.1261 19.4644 43.1261 20.7429C43.1261 22.2595 41.8923 23.4933 40.3757 23.4933C39.0971 23.4933 38.0196 22.6162 37.7128 21.4323L41.0651 18.0801Z" fill="black"/>
</g>
<defs>
<clipPath id="clip0">
<rect width="64" height="64" fill="white"/>
</clipPath>
</defs>
</svg>
